<svg width="10" height="16" viewBox="0 0 10 16" fill="none" xmlns="http://www.w3.org/2000/svg">
<path d="M9.23849 0.00332907L6.93589 0C4.34899 0 2.67723 1.54552 2.67723 3.93762V5.75313H0.362062C0.162004 5.75313 0 5.89927 0 6.07954V8.71001C0 8.89028 0.162189 9.03626 0.362062 9.03626H2.67723V15.6738C2.67723 15.854 2.83923 16 3.03929 16H6.05992C6.25998 16 6.42198 15.8539 6.42198 15.6738V9.03626H9.12895C9.32901 9.03626 9.49101 8.89028 9.49101 8.71001L9.49212 6.07954C9.49212 5.99299 9.45388 5.91009 9.38609 5.84884C9.31829 5.78758 9.22593 5.75313 9.12987 5.75313H6.42198V4.2141C6.42198 3.47438 6.61761 3.09886 7.68698 3.09886L9.23812 3.09836C9.438 3.09836 9.6 2.95222 9.6 2.77211V0.329578C9.6 0.149642 9.43818 0.00366197 9.23849 0.00332907Z" fill="#713080"/>
</svg>
