<svg width="14" height="14" viewBox="0 0 14 14" fill="none" xmlns="http://www.w3.org/2000/svg">
<path d="M10.2103 0H3.78967C1.70001 0 0 1.70001 0 3.78967V10.2104C0 12.3 1.70001 14 3.78967 14H10.2104C12.3 14 14 12.3 14 10.2104V3.78967C14 1.70001 12.3 0 10.2103 0V0ZM6.99999 10.828C4.88918 10.828 3.17198 9.11079 3.17198 6.99999C3.17198 4.88918 4.88918 3.17198 6.99999 3.17198C9.11079 3.17198 10.828 4.88918 10.828 6.99999C10.828 9.11079 9.11079 10.828 6.99999 10.828V10.828ZM10.9195 4.07475C10.2958 4.07475 9.7884 3.56739 9.7884 2.94361C9.7884 2.31984 10.2958 1.81237 10.9195 1.81237C11.5433 1.81237 12.0508 2.31984 12.0508 2.94361C12.0508 3.56739 11.5433 4.07475 10.9195 4.07475Z" fill="black"/>
<path d="M6.99998 3.99274C5.34184 3.99274 3.99271 5.34176 3.99271 7.00001C3.99271 8.65815 5.34184 10.0073 6.99998 10.0073C8.65822 10.0073 10.0073 8.65815 10.0073 7.00001C10.0073 5.34176 8.65822 3.99274 6.99998 3.99274V3.99274Z" fill="black"/>
<path d="M10.9196 2.63324C10.7484 2.63324 10.6092 2.77252 10.6092 2.94363C10.6092 3.11474 10.7484 3.25403 10.9196 3.25403C11.0908 3.25403 11.2301 3.11485 11.2301 2.94363C11.2301 2.77241 11.0908 2.63324 10.9196 2.63324Z" fill="black"/>
</svg>
