<svg width="15" height="15" viewBox="0 0 15 15" fill="none" xmlns="http://www.w3.org/2000/svg">
<g clip-path="url(#clip0)">
<path d="M15 2.84906C14.4422 3.09375 13.8478 3.25594 13.2281 3.33469C13.8656 2.95406 14.3522 2.35594 14.5809 1.635C13.9866 1.98937 13.3303 2.23969 12.6309 2.37938C12.0666 1.77844 11.2622 1.40625 10.3847 1.40625C8.68219 1.40625 7.31156 2.78813 7.31156 4.48219C7.31156 4.72594 7.33219 4.96031 7.38281 5.18344C4.82625 5.05875 2.56406 3.83344 1.04437 1.96688C0.779062 2.42719 0.623438 2.95406 0.623438 3.52125C0.623438 4.58625 1.17188 5.53031 1.98937 6.07687C1.49531 6.0675 1.01062 5.92406 0.6 5.69813C0.6 5.7075 0.6 5.71969 0.6 5.73187C0.6 7.22625 1.66594 8.4675 3.06375 8.75344C2.81344 8.82187 2.54062 8.85469 2.2575 8.85469C2.06062 8.85469 1.86187 8.84344 1.67531 8.80219C2.07375 10.02 3.20438 10.9153 4.54875 10.9444C3.5025 11.7628 2.17406 12.2559 0.735938 12.2559C0.48375 12.2559 0.241875 12.2447 0 12.2137C1.36219 13.0922 2.97656 13.5938 4.7175 13.5938C10.3762 13.5938 13.47 8.90625 13.47 4.84312C13.47 4.70719 13.4653 4.57594 13.4587 4.44563C14.0691 4.0125 14.5819 3.47156 15 2.84906Z" fill="black"/>
</g>
<defs>
<clipPath id="clip0">
<rect width="15" height="15" fill="white"/>
</clipPath>
</defs>
</svg>
