<svg width="16" height="16" viewBox="0 0 16 16" fill="none" xmlns="http://www.w3.org/2000/svg">
<path d="M11.6689 0H4.33105C1.94287 0 0 1.94287 0 4.33105V11.669C0 14.0571 1.94287 16 4.33105 16H11.669C14.0571 16 16 14.0571 16 11.669V4.33105C16 1.94287 14.0571 0 11.6689 0V0ZM7.99998 12.3749C5.58764 12.3749 3.62512 10.4123 3.62512 7.99998C3.62512 5.58764 5.58764 3.62512 7.99998 3.62512C10.4123 3.62512 12.3749 5.58764 12.3749 7.99998C12.3749 10.4123 10.4123 12.3749 7.99998 12.3749V12.3749ZM12.4795 4.65685C11.7666 4.65685 11.1867 4.07702 11.1867 3.36413C11.1867 2.65124 11.7666 2.07129 12.4795 2.07129C13.1924 2.07129 13.7723 2.65124 13.7723 3.36413C13.7723 4.07702 13.1924 4.65685 12.4795 4.65685Z" fill="#663399"/>
<path d="M8.00036 4.56299C6.10534 4.56299 4.56348 6.10473 4.56348 7.99987C4.56348 9.89489 6.10534 11.4368 8.00036 11.4368C9.8955 11.4368 11.4372 9.89489 11.4372 7.99987C11.4372 6.10473 9.8955 4.56299 8.00036 4.56299V4.56299Z" fill="#663399"/>
<path d="M12.4797 3.00928C12.2842 3.00928 12.125 3.16846 12.125 3.36401C12.125 3.55957 12.2842 3.71875 12.4797 3.71875C12.6754 3.71875 12.8346 3.55969 12.8346 3.36401C12.8346 3.16833 12.6754 3.00928 12.4797 3.00928Z" fill="#663399"/>
</svg>
