<svg width="17" height="16" viewBox="0 0 17 16" fill="none" xmlns="http://www.w3.org/2000/svg">
<g clip-path="url(#clip0)">
<path d="M16.7998 3.039C16.2048 3.3 15.5708 3.473 14.9098 3.557C15.5898 3.151 16.1088 2.513 16.3528 1.744C15.7188 2.122 15.0188 2.389 14.2728 2.538C13.6708 1.897 12.8128 1.5 11.8768 1.5C10.0608 1.5 8.5988 2.974 8.5988 4.781C8.5988 5.041 8.6208 5.291 8.6748 5.529C5.9478 5.396 3.5348 4.089 1.9138 2.098C1.6308 2.589 1.4648 3.151 1.4648 3.756C1.4648 4.892 2.0498 5.899 2.9218 6.482C2.3948 6.472 1.8778 6.319 1.4398 6.078C1.4398 6.088 1.4398 6.101 1.4398 6.114C1.4398 7.708 2.5768 9.032 4.0678 9.337C3.8008 9.41 3.5098 9.445 3.2078 9.445C2.9978 9.445 2.7858 9.433 2.5868 9.389C3.0118 10.688 4.21781 11.643 5.65181 11.674C4.53581 12.547 3.1188 13.073 1.5848 13.073C1.3158 13.073 1.0578 13.061 0.799805 13.028C2.2528 13.965 3.9748 14.5 5.83181 14.5C11.8678 14.5 15.1678 9.5 15.1678 5.166C15.1678 5.021 15.1628 4.881 15.1558 4.742C15.8068 4.28 16.3538 3.703 16.7998 3.039Z" fill="#713080"/>
</g>
<defs>
<clipPath id="clip0">
<rect width="16" height="16" fill="white" transform="translate(0.799805)"/>
</clipPath>
</defs>
</svg>
