<svg width="17" height="16" viewBox="0 0 17 16" fill="none" xmlns="http://www.w3.org/2000/svg">
<path fill-rule="evenodd" clip-rule="evenodd" d="M8.40039 0C3.97855 0 0.400391 3.57617 0.400391 8C0.400391 9.66834 0.909163 11.2115 1.81289 12.5375C1.84653 12.5874 1.86849 12.6441 1.87715 12.7037C1.88581 12.7632 1.88093 12.8239 1.86289 12.8813L1.05039 15.6L3.71289 14.6813C3.7698 14.6623 3.83025 14.6564 3.88975 14.664C3.94925 14.6715 4.00629 14.6924 4.05664 14.725C5.30375 15.5342 6.7967 16 8.40039 16C12.8243 16 16.4004 12.4239 16.4004 8C16.4004 3.57605 12.8243 0 8.40039 0ZM5.12539 3.4875L6.58164 5.89376L5.97539 6.49376C5.91367 6.55604 5.87412 6.63686 5.86283 6.72382C5.85153 6.81077 5.86912 6.89902 5.91289 6.975C6.83805 8.57713 7.93423 9.82354 9.46914 10.5C9.54269 10.5327 9.62439 10.5424 9.70356 10.5279C9.78273 10.5134 9.85568 10.4754 9.91289 10.4188L10.5566 9.775L12.9066 11.2438C12.6464 11.8294 12.3072 12.1781 11.9191 12.3813C11.4697 12.6166 10.9207 12.6612 10.2941 12.5313C9.04112 12.2714 7.52756 11.2866 6.29414 10.025C5.06072 8.76338 4.10622 7.22926 3.86289 5.98124C3.74123 5.35724 3.79497 4.81984 4.02539 4.39376C4.22379 4.0269 4.56079 3.71282 5.12539 3.4875V3.4875Z" fill="#713080"/>
</svg>
