<svg width="22" height="22" viewBox="0 0 22 22" fill="none" xmlns="http://www.w3.org/2000/svg">
<path d="M21.065 4.895C20.4682 3.8335 19.8206 3.63825 18.502 3.564C17.1848 3.47463 13.8724 3.4375 11.0027 3.4375C8.12762 3.4375 4.81387 3.47463 3.498 3.56263C2.18212 3.63825 1.53312 3.83212 0.930875 4.895C0.31625 5.95512 0 7.78113 0 10.9959C0 10.9986 0 11 0 11C0 11.0028 0 11.0041 0 11.0041V11.0069C0 14.2079 0.31625 16.0476 0.930875 17.0968C1.53312 18.1583 2.18075 18.3508 3.49662 18.4401C4.81387 18.5171 8.12762 18.5625 11.0027 18.5625C13.8724 18.5625 17.1847 18.5171 18.5034 18.4415C19.822 18.3521 20.4696 18.1596 21.0664 17.0981C21.6865 16.049 22 14.2092 22 11.0082C22 11.0082 22 11.0041 22 11.0014C22 11.0014 22 10.9986 22 10.9973C22 7.78113 21.6865 5.95512 21.065 4.895ZM8.25 15.125V6.875L15.125 11L8.25 15.125Z" fill="#663399"/>
</svg>
